<svg xmlns="http://www.w3.org/2000/svg" viewBox="0 0 256 256" width="256" height="256" role="img" aria-label="Vite">
  <defs>
    <linearGradient id="a" x1="-.828%" x2="44.762%" y1="7.202%" y2="67.492%">
      <stop offset="0%" stop-color="#41D1FF"/>
      <stop offset="100%" stop-color="#BD34FE"/>
    </linearGradient>
    <linearGradient id="b" x1="43.376%" x2="50%" y1="2.242%" y2="89.03%">
      <stop offset="0%" stop-color="#FFEA83"/>
      <stop offset="100%" stop-color="#FFDD35"/>
    </linearGradient>
  </defs>
  <path fill="url(#a)" d="M255.153 37.938 134.513 246.381c-2.42 4.22-8.506 4.257-10.977.068L.945 37.896c-2.695-4.563 1.21-10.119 6.297-9.624L127.9 41.5a6.743 6.743 0 0 0 1.429-.004l118.864-13.235c5.066-.564 9.012 4.932 6.96 9.677Z"/>
  <path fill="url(#b)" d="m185.879 0-85.96 13.932a3.37 3.37 0 0 0-2.8 3.167l-5.17 89.124a3.37 3.37 0 0 0 4.15 3.515l23.905-5.498c2.216-.51 4.225 1.32 3.789 3.566l-7.096 36.549c-.47 2.42 1.748 4.445 4.128 3.769l14.771-4.197c2.379-.676 4.597 1.349 4.128 3.77l-11.305 58.372c-.684 3.534 4.017 5.423 5.956 2.396l1.297-2.025 69.765-139.129c1.194-2.382-.846-5.144-3.498-4.724l-24.494 3.887c-2.393.379-4.279-1.888-3.651-4.208l15.993-59.099C190.376 1.263 188.289-.39 185.879 0Z"/>
</svg>

